<?xml version="1.0" standalone="no"?>
<!DOCTYPE svg PUBLIC "-//W3C//DTD SVG 20010904//EN"
 "http://www.w3.org/TR/2001/REC-SVG-20010904/DTD/svg10.dtd">
<svg version="1.0" xmlns="http://www.w3.org/2000/svg"
 width="320.000000pt" height="63.000000pt" viewBox="0 0 320.000000 63.000000"
 preserveAspectRatio="xMidYMid meet">

<g transform="translate(0.000000,63.000000) scale(0.100000,-0.100000)"
fill="#000000" stroke="none">
<path d="M98 571 c-49 -31 -88 -58 -88 -61 0 -4 152 -100 172 -108 9 -4 178
100 178 110 0 3 -15 15 -32 25 -18 11 -58 36 -88 55 l-55 35 -87 -56z"/>
<path d="M466 570 l-90 -58 87 -56 c48 -31 90 -56 93 -56 10 0 174 104 174
111 0 4 -111 79 -164 110 -6 4 -51 -19 -100 -51z"/>
<path d="M2200 329 l0 -210 38 3 c30 2 38 7 40 25 l3 23 22 -26 c29 -33 91
-42 139 -20 43 21 68 63 75 129 12 115 -37 187 -127 187 -38 0 -55 -6 -79 -26
l-31 -26 0 76 0 76 -40 0 -40 0 0 -211z m210 21 c15 -15 20 -33 20 -74 0 -47
-4 -57 -26 -75 -30 -24 -43 -26 -78 -10 -48 22 -60 116 -20 160 23 25 78 25
104 -1z"/>
<path d="M890 315 l0 -197 109 4 c118 3 141 12 185 72 18 23 21 42 21 121 0
79 -3 98 -21 121 -44 60 -67 69 -185 72 l-109 4 0 -197z m210 97 c35 -43 33
-164 -4 -200 -8 -8 -40 -17 -70 -20 l-56 -4 0 127 0 127 57 -4 c42 -4 61 -10
73 -26z"/>
<path d="M1260 281 l0 -161 40 0 40 0 0 93 c0 116 11 137 76 137 l44 0 0 45
c0 42 -2 45 -25 45 -37 0 -82 -26 -91 -52 -7 -21 -9 -20 -14 12 -4 31 -9 35
-37 38 l-33 3 0 -160z"/>
<path d="M1564 430 c-27 -11 -72 -65 -80 -96 -4 -14 -4 -52 -2 -84 3 -46 10
-66 29 -86 76 -82 226 -67 269 28 38 83 14 188 -52 228 -35 21 -123 27 -164
10z m126 -80 c31 -31 28 -113 -5 -145 -52 -53 -125 -13 -125 68 0 60 29 97 76
97 21 0 42 -8 54 -20z"/>
<path d="M1840 225 l0 -215 40 0 40 0 0 76 0 76 32 -27 c28 -23 39 -27 81 -22
86 8 136 84 124 189 -11 93 -56 138 -136 138 -28 0 -48 -8 -70 -26 l-30 -25
-7 25 c-5 22 -12 26 -40 26 l-34 0 0 -215z m210 125 c15 -15 20 -33 20 -74 0
-47 -4 -57 -26 -75 -45 -36 -92 -24 -114 29 -15 37 -7 95 16 121 23 25 78 25
104 -1z"/>
<path d="M2631 422 c-49 -26 -71 -73 -71 -151 0 -80 23 -122 80 -145 82 -33
173 -10 212 53 17 27 23 51 23 96 -1 109 -53 165 -155 165 -35 0 -68 -7 -89
-18z m139 -74 c30 -33 28 -111 -5 -143 -51 -52 -125 -13 -125 65 0 42 14 79
34 92 23 16 75 8 96 -14z"/>
<path d="M2880 434 c0 -4 23 -37 50 -74 28 -37 50 -71 50 -75 0 -4 -21 -37
-47 -73 -72 -98 -70 -92 -16 -92 46 0 49 2 76 45 16 25 32 47 37 50 4 3 22
-18 40 -45 31 -49 33 -50 81 -50 l49 0 -60 82 c-36 49 -57 86 -52 92 5 6 30
39 55 73 26 34 47 64 47 67 0 3 -20 6 -45 6 -42 0 -46 -2 -78 -50 l-34 -51
-33 51 c-31 48 -34 50 -76 50 -24 0 -44 -3 -44 -6z"/>
<path d="M104 339 c-44 -28 -83 -55 -87 -59 -7 -6 81 -68 159 -113 9 -5 151
76 177 102 5 5 -19 27 -61 54 -115 74 -100 73 -188 16z"/>
<path d="M474 339 c-43 -28 -83 -54 -87 -59 -5 -4 32 -33 81 -64 l90 -57 86
56 c47 31 86 58 86 60 0 4 -123 85 -157 103 -16 9 -33 2 -99 -39z"/>
<path d="M276 174 l-86 -56 85 -54 c46 -30 90 -54 97 -54 7 0 51 25 97 54 l83
54 -38 25 c-22 13 -61 38 -88 56 -28 17 -53 31 -56 31 -4 0 -46 -25 -94 -56z"/>
</g>
</svg>
